<?xml version="1.0" encoding="UTF-8"?>
<svg id="icon" xmlns="http://www.w3.org/2000/svg" version="1.1" viewBox="0 0 116.65 140.21">
  <!-- Generator: Adobe Illustrator 30.4.0, SVG Export Plug-In . SVG Version: 2.1.4 Build 226)  -->
  <defs>
    <style>
      .st0 {
        fill: #60a070;
      }
    </style>
  </defs>
  <path class="st0" d="M95.88,75.51c.25-1.77.43-3.57.43-5.41s-.18-3.64-.43-5.41l5.68-4.94c1.85-1.61,2.3-4.3,1.07-6.42l-7.63-13.22c-1.22-2.12-3.78-3.08-6.1-2.28l-7.11,2.45c-2.83-2.23-5.98-4.07-9.38-5.43l-1.43-7.37c-.47-2.4-2.57-4.14-5.02-4.14h-15.27c-2.45,0-4.56,1.74-5.02,4.14l-1.43,7.37c-3.4,1.36-6.55,3.2-9.38,5.43l-7.11-2.45c-2.32-.8-4.87.16-6.1,2.28l-7.63,13.22c-1.22,2.12-.77,4.81,1.07,6.42l5.68,4.94c-.25,1.77-.43,3.57-.43,5.41s.18,3.64.43,5.41l-5.68,4.94c-1.85,1.61-2.3,4.3-1.07,6.42l7.63,13.22c1.22,2.12,3.78,3.08,6.1,2.28l7.11-2.45c2.83,2.23,5.98,4.07,9.38,5.43l1.43,7.37c.47,2.4,2.57,4.14,5.02,4.14h15.27c2.45,0,4.55-1.74,5.02-4.14l1.43-7.37c3.4-1.36,6.55-3.2,9.38-5.43l7.11,2.45c2.32.8,4.87-.16,6.1-2.28l7.63-13.22c1.22-2.12.77-4.81-1.07-6.42l-5.68-4.94ZM58.33,92.57c-12.41,0-22.46-10.06-22.46-22.46s10.06-22.46,22.46-22.46,22.46,10.06,22.46,22.46-10.06,22.46-22.46,22.46Z"/>
</svg>