<?xml version="1.0" encoding="UTF-8"?>
<svg id="gentrace-sample-file-last-art" xmlns="http://www.w3.org/2000/svg" viewBox="0 0 79.33 72.25">
  <defs>
    <style>
      .cls-1 {
        fill: #231815;
      }

      .cls-2 {
        fill: none;
        stroke: #231815;
        stroke-linecap: round;
        stroke-linejoin: round;
        stroke-width: 1.5px;
      }
    </style>
  </defs>
  <path class="cls-2" d="M58.09,19.31c-5.09-6.49-13.8-6.22-13.8-6.22l-3.11-.11c.73-2.23,1.66-6.09-.66-7.77,0,0-1.33-.81-2.07.24-.5.71-.05,1.37-.1,2.9-.04,1.19-.13,3.4-.56,4.64l-2.73.1s-8.71-.27-13.8,6.22c0,0,5.78-1.25,10.66-.21,0,0-2.26,1.8-1.53,6.6,0,0,5.47-4.61,9.3-5.59,3.83.98,9.3,5.59,9.3,5.59.73-4.8-1.53-6.6-1.53-6.6,4.88-1.04,10.66.21,10.66.21Z"/>
  <path class="cls-2" d="M60.71,21.34c5.39,4.68,8.73,11.16,8.73,18.31,0,14.3-13.33,25.88-29.78,25.88s-29.78-11.59-29.78-25.88c0-6.97,3.17-13.3,8.33-17.96"/>
  <circle class="cls-2" cx="27.99" cy="39.56" r="8.4"/>
  <circle class="cls-2" cx="51.5" cy="39.56" r="8.4"/>
  <path class="cls-2" d="M36.42,39.5s.77-2.21,3.27-2.21,3.41,2.21,3.41,2.21"/>
  <path class="cls-1" d="M19.29,38.43c-.76,0-1.37.51-1.37,1.13s.61,1.13,1.37,1.13c.11,0,.2-.03.3-.05v-2.16c-.1-.02-.2-.05-.3-.05Z"/>
  <path class="cls-1" d="M60.2,40.68c.76,0,1.37-.51,1.37-1.13s-.61-1.13-1.37-1.13c-.11,0-.2.03-.3.05v2.16c.1.02.2.05.3.05Z"/>
  <ellipse class="cls-1" cx="28.99" cy="39.56" rx="3.36" ry="3.92"/>
  <ellipse class="cls-1" cx="50.5" cy="39.56" rx="3.36" ry="3.92"/>
  <path class="cls-2" d="M35.03,47.96c2.53,2.58,6.67,2.61,9.27.07"/>
  <path class="cls-1" d="M46.14,55.69c-.21-.14-.6-.16-.88-.03l-3.96,1.96c-.48-.44-1.05-.67-1.64-.68-.58.02-1.16.25-1.64.68l-3.96-1.96c-.28-.14-.67-.12-.88.03-.16.11-.42.37-.4.72l.13,5.82c.03.55.46.96,1.53.31l3.72-1.99c.42.43.96.66,1.5.68.54-.02,1.07-.24,1.5-.68l3.72,1.99c1.07.65,1.5.23,1.53-.31l.13-5.82c.02-.35-.23-.6-.4-.72Z"/>
  <line class="cls-2" x1="45.11" y1="29.69" x2="52.5" y2="27.74"/>
  <line class="cls-2" x1="34.22" y1="29.69" x2="26.83" y2="27.74"/>
</svg>